<?xml version="1.0" encoding="UTF-8" standalone="no"?>
<!-- Created with Inkscape (http://www.inkscape.org/) -->

<svg
   width="69.820862mm"
   height="37.636303mm"
   viewBox="0 0 69.820862 37.636303"
   version="1.1"
   id="svg1"
   inkscape:version="1.3.2 (091e20e, 2023-11-25)"
   sodipodi:docname="qac-logo.svg"
   xmlns:inkscape="http://www.inkscape.org/namespaces/inkscape"
   xmlns:sodipodi="http://sodipodi.sourceforge.net/DTD/sodipodi-0.dtd"
   xmlns="http://www.w3.org/2000/svg"
   xmlns:svg="http://www.w3.org/2000/svg">
  <sodipodi:namedview
     id="namedview1"
     pagecolor="#ffffff"
     bordercolor="#000000"
     borderopacity="0.25"
     inkscape:showpageshadow="2"
     inkscape:pageopacity="0.0"
     inkscape:pagecheckerboard="true"
     inkscape:deskcolor="#d1d1d1"
     inkscape:document-units="mm"
     inkscape:zoom="0.73584456"
     inkscape:cx="248.69383"
     inkscape:cy="186.18063"
     inkscape:window-width="1728"
     inkscape:window-height="1051"
     inkscape:window-x="0"
     inkscape:window-y="38"
     inkscape:window-maximized="1"
     inkscape:current-layer="layer1" />
  <defs
     id="defs1" />
  <g
     inkscape:label="Ebene 1"
     inkscape:groupmode="layer"
     id="layer1"
     transform="translate(-69.585423,-122.2375)">
    <g
       id="g11"
       transform="matrix(0.10903989,0,0,0.10903989,74.29496,88.5046)"
       style="stroke-width:9.17095">
      <path
         style="fill:#000000;stroke-width:9.17095"
         d="m 551.16299,508.0236 c -10.21593,-1.06678 -20.859,-5.2893 -29.24847,-11.60402 -22.46208,-16.9071 -29.58772,-48.77981 -16.5917,-74.2141 14.47157,-28.32209 49.50011,-39.6631 78.50281,-25.41645 5.92659,2.91125 11.94585,7.08625 12.97697,9.00093 0.45581,0.84639 0.45329,0.89589 -0.0902,1.77533 -0.30751,0.49756 -1.92462,2.23898 -3.59358,3.86982 -3.6467,3.5634 -3.83634,3.61508 -6.16117,1.67882 -5.81455,-4.84269 -13.75703,-8.35638 -22.31428,-9.87166 -2.95832,-0.52384 -11.66234,-0.44604 -14.74676,0.13182 -16.71321,3.13119 -30.77354,15.22001 -36.28173,31.19438 -1.92114,5.57149 -2.28522,7.94795 -2.28106,14.88909 0.003,4.75013 0.1052,6.57889 0.46648,8.33438 2.0737,10.07604 6.34319,17.88169 13.61631,24.89385 6.54342,6.30864 14.41538,10.46104 23.61634,12.45744 2.45476,0.53263 3.50184,0.60218 8.99583,0.59752 5.40622,-0.005 6.56813,-0.0813 8.90264,-0.588 5.85006,-1.26967 11.42755,-3.74989 17.84518,-7.93547 1.83271,-1.19529 3.58338,-2.17326 3.89037,-2.17326 0.37764,0 1.60026,1.13385 3.78018,3.50573 1.7721,1.92815 3.34053,3.76484 3.4854,4.08153 0.50162,1.09659 0.0275,1.79682 -2.3785,3.51272 -11.36339,8.10415 -23.71982,12.25712 -36.14485,12.1482 -2.20585,-0.0193 -5.01663,-0.14021 -6.24618,-0.2686 z"
         id="path5"
         sodipodi:nodetypes="ssssssssssscssscsssssssss" />
      <path
         d="m 154.99953,504.73365 c -4.08729,-0.73898 -8.25376,-2.5162 -12.14153,-5.17898 -2.52047,-1.7263 -6.63061,-5.63091 -11.15059,-10.59298 -4.24426,-4.65938 -8.80526,-7.9863 -12.58343,-9.17871 -3.05149,-0.96307 -3.30893,-1.90521 -1.05249,-3.85172 3.21129,-2.7702 6.98762,-3.59178 12.10333,-2.63318 l 2.26751,0.4249 1.0181,-1.14725 c 3.99611,-4.50306 7.70057,-12.31546 9.08476,-19.15902 0.75141,-3.71501 0.67894,-12.524 -0.13378,-16.26227 -2.52371,-11.6083 -8.9951,-21.24987 -18.51785,-27.58928 -13.19359,-8.78316 -30.873483,-9.41954 -44.815235,-1.61311 -9.41136,5.26971 -16.62559,13.8743 -19.94204,23.78536 -1.77967,5.31848 -2.07385,7.2631 -2.08025,13.7514 -0.005,5.05141 0.0712,6.16213 0.57619,8.40277 3.73931,16.59048 15.49878,29.08865 31.422562,33.39643 4.59966,1.24433 7.84267,1.54717 14.424623,1.34703 6.58486,-0.20023 7.59733,-0.081 10.2017,1.2011 2.02882,0.99879 3.99734,2.7152 5.99028,5.2231 1.84828,2.32587 1.94201,3.08033 0.47195,3.79888 -1.37017,0.66973 -7.36754,2.26885 -10.84792,2.89247 -4.39674,0.7878 -11.528973,0.95584 -16.064943,0.3785 -26.130342,-3.32589 -46.837331,-24.26878 -49.831027,-50.39872 -0.455816,-3.97851 -0.191637,-12.32152 0.507621,-16.03114 2.884271,-15.30129 11.363434,-28.46546 23.981054,-37.23136 7.02024,-4.8772 15.608012,-8.12254 24.738542,-9.34876 3.77414,-0.50686 11.651883,-0.49018 15.400163,0.0326 22.52922,3.14228 41.21625,19.60511 47.03087,41.43305 1.28024,4.80597 1.86458,9.41757 1.87176,14.77174 0.0128,9.59086 -1.81083,17.38387 -6.0445,25.82952 -1.72593,3.44301 -4.612,7.93357 -6.40732,9.96942 l -1.12067,1.27082 2.3725,2.3189 c 4.7576,4.65013 9.43797,6.89362 14.4132,6.90883 2.38599,0.007 2.334,-0.14528 2.334,6.84974 0,4.32447 -0.0892,6.10279 -0.3175,6.33111 -0.43072,0.43071 -4.53879,0.37264 -7.15964,-0.10121 z"
         style="fill:#000000;stroke-width:9.17095"
         id="path1-6" />
      <path
         d="m 377.05375,510.53598 c -6.19893,-1.02063 -9.66925,-2.31227 -14.2875,-5.31775 -1.73903,-1.13173 -3.80874,-3.03503 -9.12812,-8.39422 -7.47703,-7.53297 -9.30066,-8.97932 -13.22265,-10.48709 -2.49274,-0.9583 -2.78464,-1.16227 -2.78464,-1.94575 0,-0.95709 1.59869,-2.02436 4.71762,-3.14942 2.43348,-0.8778 4.49747,-1.08353 7.02579,-0.70028 l 2.07522,0.31457 0.91995,-0.88257 c 1.16149,-1.11431 4.1888,-5.14889 5.4269,-7.23257 2.71548,-4.57007 4.78856,-9.91929 5.82452,-15.02912 0.51585,-2.5444 0.59838,-3.74679 0.58474,-8.5188 -0.0179,-6.25495 -0.38371,-8.62104 -2.16816,-14.02292 -4.53786,-13.73708 -16.34824,-25.59692 -30.02885,-30.1546 -7.41861,-2.4715 -15.73535,-2.92866 -23.73435,-1.30465 -8.66187,1.7586 -17.55898,6.70017 -23.82959,13.23527 -16.20072,16.88404 -17.86713,41.79717 -4.02723,60.20798 2.22949,2.96581 7.3572,7.98637 10.26014,10.04572 7.55426,5.35901 16.26481,8.44636 25.00497,8.8627 2.90135,0.13821 4.50421,0.0563 8.41561,-0.43028 5.43724,-0.67633 6.52519,-0.59263 9.23079,0.71021 1.7252,0.83074 5.48154,4.40115 6.21016,5.90277 0.37693,0.77681 0.39281,1.0058 0.10041,1.44742 -0.66148,0.99904 -6.56352,2.91828 -11.8212,3.84404 -4.72015,0.83111 -12.87365,1.01799 -17.70411,0.40579 -23.07217,-2.92413 -42.47876,-19.379 -48.78323,-41.36337 -3.37615,-11.77299 -3.03368,-25.46575 0.92685,-37.0574 6.4319,-18.82485 22.54425,-32.99878 42.56471,-37.44388 4.57852,-1.01655 7.59275,-1.32861 12.7,-1.31481 6.8846,0.0186 12.0698,0.86162 18.65313,3.03263 28.58498,9.42656 45.10847,38.02223 39.11952,67.7005 -1.77142,8.77829 -6.04936,17.9908 -11.47311,24.70728 l -1.68403,2.08541 2.76152,2.68734 c 3.09858,3.01535 5.65097,4.81989 8.44991,5.97408 2.26065,0.93222 5.25254,1.58756 7.24781,1.58756 0.79702,0 1.75687,0.117 2.13299,0.26 l 0.68386,0.26 -0.0713,5.75927 -0.0713,5.75927 -2.77812,0.0343 c -1.52797,0.0189 -3.07579,-0.0147 -3.43959,-0.0746 z"
         style="fill:#000000;stroke-width:9.17095"
         id="path1-4" />
      <path
         id="path1-9"
         style="fill:#000000;stroke-width:9.17095"
         d="m 449.36793,391.92285 c -0.30249,-0.0493 -0.60408,0.0478 -0.80925,0.30696 -0.73079,0.92295 -54.08352,114.80357 -53.94916,115.15369 0.13286,0.34624 1.06887,0.40308 6.60425,0.40308 5.81233,0 6.48964,-0.0458 6.85333,-0.46302 0.17836,-0.20465 6.87445,-14.34231 15.05489,-31.7128 7.92036,-0.0318 16.91817,-0.0639 28.95069,-0.0791 8.52275,-0.0108 16.06225,-0.0231 23.26524,-0.0351 5.47993,11.67958 12.4197,26.47883 13.13977,27.99054 l 2.04794,4.29948 h 6.63163 c 6.82431,0 6.78652,0.006 6.64508,-1.02061 -0.06,-0.43503 -53.07847,-113.42591 -53.61947,-114.27158 -0.20892,-0.32658 -0.51245,-0.52226 -0.81494,-0.57154 z m -0.0827,28.29439 c 0.0728,2.6e-4 8.45979,17.76871 18.63814,39.48545 0.74911,1.59831 0.77639,1.65215 1.51257,3.22254 -13.03299,0.015 -26.98734,0.0387 -40.36705,0.0672 11.0522,-23.53648 20.14423,-42.77543 20.21634,-42.77517 z" />
      <path
         id="path6"
         style="color:#000000;fill:#9141ac;stroke-width:9.17095;stroke-linejoin:bevel;-inkscape-stroke:none"
         d="M -27.279198,437.65406 121.1142,654.5238 m -13.10086,-19.24756 0.0186,-21.92363 -0.0186,21.92363 136.26407,-199.39856 c 0.58308,-0.82405 1.1547,-1.65249 1.70725,-2.49879 l 0.97439,-1.42583 -0.0736,-0.051 c 7.6517,-12.29249 12.14516,-26.73584 12.13707,-42.23995 -0.023,-44.30746 -36.19462,-80.32227 -80.60298,-80.29915 -30.33894,0.0158 -56.80493,16.85367 -70.52824,41.64553 C 94.141318,326.23348 67.665661,309.42061 37.328685,309.43642 l -2.68e-4,3e-4 c -44.4083438,0.0232 -80.542417,36.07562 -80.519359,80.38303 0.008,15.50429 4.454918,29.98493 12.119507,42.26953 l -0.01205,0.008 0.303984,0.4441 c 1.106726,1.74778 2.265849,3.45878 3.500237,5.1126 M 37.334778,321.83797 c 29.040416,-0.0151 53.729902,17.97678 63.585792,43.39695 l 13.99414,-0.007 c 9.83275,-25.42408 34.47493,-43.44796 63.51084,-43.46309 37.72666,-0.0197 68.17501,30.318 68.19457,67.90433 0.007,13.16398 -3.78286,25.40032 -10.24931,35.80031 l -3.2652,4.77948 -22.65195,33.1531 L 108.03203,613.31021 5.4723245,463.53678 -16.559837,431.36191 l -4.291973,-6.26763 -0.03763,0.0253 c -6.277833,-10.28059 -9.893494,-22.3632 -9.900229,-35.30613 -0.01955,-37.58628 30.39720413,-67.95568 68.1238,-67.97532 z"
         sodipodi:nodetypes="cccccccccsscsssccccccssccccccccsssc" />
    </g>
  </g>
</svg>
